<svg xmlns="http://www.w3.org/2000/svg" version="1.1" xmlns:xlink="http://www.w3.org/1999/xlink" xmlns:svgjs="http://svgjs.dev/svgjs" width="1000" height="313" viewBox="0 0 1000 313"><g transform="matrix(1,0,0,1,-0.6060547644212306,-0.01779590272312248)"><svg viewBox="0 0 396 124" data-background-color="#ffffff" preserveAspectRatio="xMidYMid meet" height="313" width="1000" xmlns="http://www.w3.org/2000/svg" xmlns:xlink="http://www.w3.org/1999/xlink"><g id="tight-bounds" transform="matrix(1,0,0,1,0.239997686710808,0.007050224252679982)"><svg viewBox="0 0 395.52 123.98589964176118" height="123.98589964176118" width="395.52"><g><svg viewBox="0 0 554.0263985355664 173.67380018132363" height="123.98589964176118" width="395.52"><g transform="matrix(1,0,0,1,158.50639853556635,53.66772511332728)"><svg viewBox="0 0 395.52 66.33834995466907" height="66.33834995466907" width="395.52"><g id="textblocktransform"><svg viewBox="0 0 395.52 66.33834995466907" height="66.33834995466907" width="395.52" id="textblock"><g><svg viewBox="0 0 395.52 66.33834995466907" height="66.33834995466907" width="395.52"><g transform="matrix(1,0,0,1,0,0)"><svg width="395.52" viewBox="1.9500000476837158 -36.5 220.58999633789062 37" height="66.33834995466907" data-palette-color="#636365"><path d="M24.4-24.55L24.4-11.35 20.85-11.35 20-16.2 12.65-16.2 12.65-3.85 18.5-2.9 18.5 0 1.95 0 1.95-2.65 6.65-3.85 6.65-32.3 1.95-33.35 1.95-36 31.1-36 31.1-25.3 27.4-25.3 25.8-32.6 12.65-32.6 12.65-19.7 20-19.7 20.85-24.55 24.4-24.55ZM49.55-33.35L44.85-32.3 44.85-3.7 49.55-2.65 49.55 0 34.15 0 34.15-2.65 38.85-3.7 38.85-32.3 34.15-33.35 34.15-36 49.55-36 49.55-33.35ZM52.8-25L52.8-36 83.59-36 83.59-25 80.59-25 79-32.5 71.2-32.5 71.2-3.85 76.5-2.65 76.5 0 59.9 0 59.9-2.65 65.2-3.85 65.2-32.5 57.35-32.5 55.8-25 52.8-25ZM86.24-25L86.24-36 117.04-36 117.04-25 114.04-25 112.44-32.5 104.64-32.5 104.64-3.85 109.94-2.65 109.94 0 93.34 0 93.34-2.65 98.64-3.85 98.64-32.5 90.79-32.5 89.24-25 86.24-25ZM146.29-19.1L146.29-19.1Q145.39-18.4 144.24-17.8 143.09-17.2 141.34-16.8L141.34-16.8Q141.69-16.5 142.22-15.85 142.74-15.2 143.24-14.35L143.24-14.35 149.59-3.6 154.04-2.65 154.04 0 142.74 0 142.74-2.65 135.99-15.9 130.74-15.9 130.74-3.7 135.49-2.65 135.49 0 120.54 0 120.54-2.65 124.74-3.7 124.74-32.3 120.54-33.35 120.54-36 138.74-36Q141.14-36 142.97-35.55 144.79-35.1 146.19-34.1L146.19-34.1Q148.04-32.85 149.07-30.78 150.09-28.7 150.09-26.6L150.09-26.6Q150.09-24.5 149.07-22.48 148.04-20.45 146.29-19.1ZM130.74-32.6L130.74-19.3 136.89-19.3Q139.64-19.3 141.44-20.85L141.44-20.85Q142.44-21.7 143.02-23.15 143.59-24.6 143.59-26.3L143.59-26.3Q143.59-27.9 143.02-29.18 142.44-30.45 141.39-31.3L141.39-31.3Q140.54-32 139.42-32.3 138.29-32.6 136.69-32.6L136.69-32.6 130.74-32.6ZM175.99-2.65L180.09-3.7 177.39-11.85 164.79-11.85 162.04-3.7 166.19-2.65 166.19 0 153.49 0 153.49-2.65 157.59-3.7 169.39-36.5 175.04-36.5 186.74-3.7 190.74-2.65 190.74 0 175.99 0 175.99-2.65ZM171.39-30.6L171.19-30.6 165.94-15.25 176.29-15.25 171.39-30.6ZM208.24-33.3L208.24-33.3Q206.14-33.3 204.41-32.52 202.69-31.75 201.59-30.2L201.59-30.2Q200.19-28.25 199.29-25.25 198.39-22.25 198.39-18.6L198.39-18.6Q198.39-15.05 199.14-11.95 199.89-8.85 201.24-6.75L201.24-6.75Q202.44-4.9 204.34-4.05 206.24-3.2 208.74-3.2L208.74-3.2Q217.34-3.2 218.79-11.65L218.79-11.65 222.54-11.65Q220.19 0.5 207.84 0.5L207.84 0.5Q200.94 0.5 196.84-3.5L196.84-3.5Q194.39-5.9 193.09-9.55 191.79-13.2 191.79-17.65L191.79-17.65Q191.79-22.7 193.44-26.8 195.09-30.9 198.09-33.35L198.09-33.35Q201.89-36.5 208.14-36.5L208.14-36.5Q211.24-36.5 213.19-35.7 215.14-34.9 217.04-32.85L217.04-32.85 218.04-36 221.79-36 221.79-24.45 217.74-24.45Q217.04-28.85 214.59-31.08 212.14-33.3 208.24-33.3Z" opacity="1" transform="matrix(1,0,0,1,0,0)" fill="#636365" class="undefined-text-0" data-fill-palette-color="primary" id="text-0"></path></svg></g></svg></g></svg></g></svg></g><g><svg viewBox="0 0 142.84550623166788 173.67380018132363" height="173.67380018132363" width="142.84550623166788"><g><svg xmlns="http://www.w3.org/2000/svg" xmlns:xlink="http://www.w3.org/1999/xlink" version="1.1" x="0" y="0" viewBox="29.715322494506836 10.843687057495117 142.47169494628906 173.2193145751953" enable-background="new 0 0 200 200" xml:space="preserve" height="173.67380018132363" width="142.84550623166788" class="icon-icon-0" data-fill-palette-color="accent" id="icon-0"><path d="M169.396 166.964c-40.271 15.135-71.859 13.34-91.265 9.165-19.038-4.094-30.407-11.21-32.468-12.577-2.308-3.459-20.521-32.485-4.273-63.527 9.911-18.935 10.07-29.106 10.199-37.279 0.1-6.42 0.18-11.492 4.833-19.399 6.353-10.797 26.816-25.525 41.641-27.32 5.231-0.635 9.211 0.408 11.854 3.116l10.693 10.694c0.691 0.692 1.073 1.612 1.073 2.591 0 0.978-0.381 1.898-1.073 2.589l-0.329 0.329c-0.201-0.25-0.412-0.493-0.643-0.723l-10.692-10.695c-2.238-2.237-5.213-3.469-8.376-3.469-1.381 0-2.5 1.119-2.5 2.5s1.119 2.5 2.5 2.5c1.828 0 3.548 0.712 4.841 2.004l10.693 10.695c0.453 0.454 0.758 1.01 0.924 1.612 0.011 0.21 0.05 0.418 0.113 0.621 0.012 0.119 0.035 0.235 0.035 0.356 0 0.978-0.381 1.898-1.073 2.59l-0.794 0.793c-0.142-0.164-0.283-0.328-0.438-0.483l-8.515-8.516c-2.239-2.237-5.213-3.469-8.375-3.469-1.381 0-2.5 1.119-2.5 2.5s1.119 2.5 2.5 2.5c1.827 0 3.546 0.712 4.84 2.005l8.515 8.517c0.692 0.691 1.073 1.61 1.073 2.588 0 0.978-0.381 1.897-1.074 2.59l-6.671 6.672c-1.383 1.383-3.797 1.383-5.18 0l-3.361-3.362c-0.932-0.932-0.932-2.448-0.001-3.38 0.932-0.931 2.448-0.931 3.38 0 0.976 0.977 2.559 0.976 3.536 0 0.976-0.977 0.976-2.56-0.001-3.536l-4.404-4.402c-0.469-0.469-1.104-0.732-1.768-0.732-0.001 0-0.002 0-0.004 0-0.664 0.001-1.301 0.267-1.769 0.737-9.504 9.561-18.156 5.752-18.501 5.594-1.1-0.525-2.417-0.182-3.12 0.812-6.802 9.621-2.928 19.901 1.557 31.804 3.881 10.3 8.18 21.716 7.465 35.816-0.059 0.253-0.076 0.509-0.055 0.763-0.193 3.064-0.61 6.249-1.335 9.583-0.293 1.35 0.562 2.681 1.912 2.975 0.179 0.038 0.358 0.058 0.534 0.058 1.15 0 2.186-0.8 2.44-1.97 0.526-2.423 0.903-4.777 1.158-7.071 1.24 0.371 2.49 0.542 3.75 0.542 6.46 0 13.19-4.451 20.201-9.088 15.725-10.4 33.549-22.189 57.271 5.875l3.818-3.229c-26.59-31.458-48.123-17.215-63.848-6.816-9.283 6.141-15.479 9.905-20.819 7.51 0.475-14.699-4.032-26.676-7.813-36.71-4.012-10.647-6.988-18.543-3.127-25.597 2.76 0.73 7.896 1.366 13.85-1.403-0.046 1.95 0.673 3.916 2.157 5.401l3.362 3.362c3.377 3.377 8.873 3.378 12.25 0l6.67-6.671c1.639-1.636 2.54-3.812 2.54-6.126 0-0.215-0.016-0.428-0.031-0.64l2.26-2.259c1.637-1.636 2.538-3.812 2.538-6.126 0-0.073-0.009-0.144-0.011-0.216l1.979-1.979c1.637-1.636 2.538-3.812 2.538-6.125s-0.901-4.489-2.538-6.126L113.473 15.63c-3.767-3.861-9.152-5.399-16.012-4.567-16.608 2.011-38.389 17.918-45.349 29.748-5.322 9.045-5.419 15.268-5.522 21.856-0.126 8.042-0.269 17.156-9.629 35.039-18.685 35.699 4.641 68.778 4.878 69.108 0.158 0.22 0.351 0.411 0.571 0.569 0.498 0.357 12.439 8.8 34.378 13.57 8.051 1.751 18.117 3.11 29.962 3.11 17.747 0 39.484-3.054 64.407-12.421L169.396 166.964z" fill="#89939e" data-fill-palette-color="accent"></path></svg></g></svg></g></svg></g><defs></defs></svg><rect width="395.52" height="123.98589964176118" fill="none" stroke="none" visibility="hidden"></rect></g></svg></g></svg>